<svg width="43" height="40" viewBox="0 0 43 40" fill="none" xmlns="http://www.w3.org/2000/svg">
<path d="M21.5 40L14.5718 29.5H28.4282L21.5 40Z" fill="#BDBDBD"/>
<path fill-rule="evenodd" clip-rule="evenodd" d="M0.5 10C0.5 4.47715 4.97715 0 10.5 0H32.5C38.0228 0 42.5 4.47715 42.5 10V22C42.5 27.5228 38.0228 32 32.5 32H10.5C4.97715 32 0.5 27.5228 0.5 22V10ZM6.5 20C6.5 18.8954 7.39543 18 8.5 18H20.5C21.6046 18 22.5 18.8954 22.5 20C22.5 21.1046 21.6046 22 20.5 22H8.5C7.39543 22 6.5 21.1046 6.5 20ZM8.5 10C7.39543 10 6.5 10.8954 6.5 12C6.5 13.1046 7.39543 14 8.5 14H28.5C29.6046 14 30.5 13.1046 30.5 12C30.5 10.8954 29.6046 10 28.5 10H8.5Z" fill="#BDBDBD"/>
</svg>
