<svg width="98" height="98" viewBox="0 0 98 98" fill="none" xmlns="http://www.w3.org/2000/svg">
<rect width="98" height="98" rx="24" fill="#87027B" fill-opacity="0.1"/>
<path fill-rule="evenodd" clip-rule="evenodd" d="M49.7012 19C45.9946 19 43.8325 21.5247 43.2147 22.7871C38.2726 34.7794 28.2032 61.0364 27.4619 70.1253C26.7206 79.2143 34.5661 79.593 38.5815 78.6462L49.7012 72.9656L60.8208 78.6462C64.8362 79.593 72.6818 79.2143 71.9404 70.1253C71.1991 61.0364 61.1297 34.7794 56.1876 22.7871C55.5699 21.5247 53.4077 19 49.7012 19Z" fill="#87027B"/>
<path d="M70.6032 52.9832L65.7842 39.0328C65.5846 38.4549 65.9447 37.8348 66.5525 37.7692C70.2424 37.3708 76.3798 37.9054 78.3779 42.669C80.3999 47.4895 75.4259 51.6316 71.9523 53.5301C71.4323 53.8143 70.7966 53.5433 70.6032 52.9832Z" fill="#87027B"/>
<path d="M28.2425 52.9832L33.0615 39.0328C33.2611 38.4549 32.901 37.8348 32.2932 37.7692C28.6033 37.3708 22.4659 37.9054 20.4678 42.669C18.4458 47.4895 23.4198 51.6316 26.8934 53.5301C27.4135 53.8143 28.0491 53.5433 28.2425 52.9832Z" fill="#87027B"/>
</svg>
