<svg width="40" height="41" viewBox="0 0 40 41" fill="none" xmlns="http://www.w3.org/2000/svg">
<path fill-rule="evenodd" clip-rule="evenodd" d="M13.4333 0.133331C6.25365 0.133331 0.43335 5.95363 0.43335 13.1333V24.4667C0.43335 31.6464 6.25364 37.4667 13.4333 37.4667H21.853C21.2825 36.1369 20.9666 34.672 20.9666 33.1333C20.9666 27.0582 25.8914 22.1333 31.9666 22.1333C34.0953 22.1333 36.0828 22.738 37.7667 23.785V13.1333C37.7667 5.95363 31.9464 0.133331 24.7667 0.133331H13.4333ZM9.7666 9.76666C8.38589 9.76666 7.2666 10.886 7.2666 12.2667C7.2666 13.6474 8.38589 14.7667 9.7666 14.7667H24.6999C26.0806 14.7667 27.1999 13.6474 27.1999 12.2667C27.1999 10.886 26.0806 9.76666 24.6999 9.76666H9.7666ZM7.2666 19.7333C7.2666 18.3526 8.38589 17.2333 9.7666 17.2333H19.0999C20.4806 17.2333 21.5999 18.3526 21.5999 19.7333C21.5999 21.114 20.4806 22.2333 19.0999 22.2333H9.7666C8.38589 22.2333 7.2666 21.114 7.2666 19.7333ZM9.7666 24.7C8.38589 24.7 7.2666 25.8193 7.2666 27.2C7.2666 28.5807 8.38589 29.7 9.7666 29.7H13.4999C14.8806 29.7 15.9999 28.5807 15.9999 27.2C15.9999 25.8193 14.8806 24.7 13.4999 24.7H9.7666Z" fill="#BDBDBD"/>
<path fill-rule="evenodd" clip-rule="evenodd" d="M31.6333 41C36.0147 41 39.5666 37.4481 39.5666 33.0667C39.5666 28.6852 36.0147 25.1333 31.6333 25.1333C27.2518 25.1333 23.7 28.6852 23.7 33.0667C23.7 37.4481 27.2518 41 31.6333 41ZM32.6333 27.9333C32.6333 27.381 32.1856 26.9333 31.6333 26.9333C31.081 26.9333 30.6333 27.381 30.6333 27.9333V32.6V33.6H31.6333H35.3666C35.9189 33.6 36.3666 33.1523 36.3666 32.6C36.3666 32.0477 35.9189 31.6 35.3666 31.6H32.6333V27.9333Z" fill="#BDBDBD"/>
</svg>
