<svg width="41" height="41" viewBox="0 0 41 41" fill="none" xmlns="http://www.w3.org/2000/svg">
<path fill-rule="evenodd" clip-rule="evenodd" d="M22.4569 0.684109C21.2414 0.00224945 19.7585 0.00224945 18.543 0.684109L16.4969 1.83189C15.9138 2.15898 15.258 2.3347 14.5895 2.34298L12.2436 2.37203C10.85 2.38929 9.56581 3.1307 8.85406 4.32898L7.65595 6.34605C7.31452 6.92086 6.83445 7.40093 6.25963 7.74236L4.24256 8.94047C3.04429 9.65222 2.30288 10.9364 2.28562 12.33L2.25657 14.6759C2.24829 15.3444 2.07257 16.0002 1.74548 16.5833L0.597698 18.6294C-0.0841611 19.8449 -0.0841611 21.3278 0.597698 22.5433L1.74548 24.5894C2.07257 25.1725 2.24829 25.8283 2.25657 26.4968L2.28562 28.8427C2.30288 30.2363 3.04429 31.5205 4.24256 32.2322L6.25963 33.4303C6.83445 33.7718 7.31452 34.2518 7.65595 34.8267L8.85406 36.8437C9.56581 38.042 10.85 38.7834 12.2436 38.8007L14.5895 38.8297C15.258 38.838 15.9138 39.0137 16.4969 39.3408L18.543 40.4886C19.7585 41.1705 21.2414 41.1705 22.4569 40.4886L24.503 39.3408C25.0861 39.0137 25.7419 38.838 26.4104 38.8297L28.7563 38.8007C30.1499 38.7834 31.4341 38.042 32.1458 36.8437L33.3439 34.8267C33.6854 34.2518 34.1654 33.7718 34.7402 33.4303L36.7573 32.2322C37.9556 31.5205 38.697 30.2363 38.7143 28.8427L38.7433 26.4968C38.7516 25.8283 38.9273 25.1725 39.2544 24.5894L40.4022 22.5433C41.084 21.3278 41.084 19.8449 40.4022 18.6294L39.2544 16.5833C38.9273 16.0002 38.7516 15.3444 38.7433 14.6759L38.7143 12.33C38.697 10.9364 37.9556 9.65222 36.7573 8.94047L34.7403 7.74236C34.1654 7.40093 33.6854 6.92086 33.3439 6.34605L32.1458 4.32898C31.4341 3.1307 30.1499 2.38929 28.7563 2.37203L26.4104 2.34298C25.7419 2.3347 25.0861 2.15898 24.503 1.83189L22.4569 0.684109ZM13.3664 26.2064C12.8238 26.8324 12.8915 27.7797 13.5175 28.3223C14.1436 28.8649 15.0909 28.7972 15.6335 28.1712L27.4222 14.5687C27.9648 13.9427 27.8971 12.9954 27.2711 12.4528C26.6451 11.9103 25.6977 11.9779 25.1552 12.604L13.3664 26.2064ZM16.4999 14.5864C16.4999 15.6909 15.6045 16.5864 14.4999 16.5864C13.3954 16.5864 12.4999 15.6909 12.4999 14.5864C12.4999 13.4818 13.3954 12.5864 14.4999 12.5864C15.6045 12.5864 16.4999 13.4818 16.4999 14.5864ZM26.4999 28.5864C27.6045 28.5864 28.4999 27.6909 28.4999 26.5864C28.4999 25.4818 27.6045 24.5864 26.4999 24.5864C25.3954 24.5864 24.4999 25.4818 24.4999 26.5864C24.4999 27.6909 25.3954 28.5864 26.4999 28.5864Z" fill="#BDBDBD"/>
</svg>
